# xmcd
#
# Track frame offsets: 
#        150
#        32906
#        54327
#        84076
#        102074
#        126137
#        144886
#        163335
#        188191
#        199650
#        217731
#        233678
#        246876
#        258999
#        272991
#
# Disc length: 3869 seconds
#
# Revision: 4
# Processed by: cddbd v1.5.2PL0 Copyright (c) Steve Scherf et al.
# Submitted via: ExactAudioCopyFreeDBPlugin 1.0
#
DISCID=c70f1b0f
DTITLE=Various Artist - City Lounge 3: Paris
DYEAR=2007
DGENRE=Lounge
TTITLE0=St Germain - Deep In It
TTITLE1=Metropolitan Jazz Affair - Escapism
TTITLE2=Llorca - The End
TTITLE3=The Big Knife - Projection Orange
TTITLE4=Dj Cam Feat China - He's Gone [Kid Loco Mix]
TTITLE5=The Dynamics - Move On Up
TTITLE6=Troublemakers - Get Misunderstood
TTITLE7=Cháteau Flight  La Caution - Une Epave Sur La Route [Instru]
TTITLE8=China Bear - Vodka
TTITLE9=[T]ékël - Toufutouflam
TTITLE10=Scratch Massive - Shining In My Vein [Spirit Catcher Mix]
TTITLE11=Sporto Kantes - Lee
TTITLE12=Diving With Andy - October In May
TTITLE13=Hushpuppies - Comptine
TTITLE14=Aaron - U-Turn [Lili]
EXTD=
EXTT0=
EXTT1=
EXTT2=
EXTT3=
EXTT4=
EXTT5=
EXTT6=
EXTT7=
EXTT8=
EXTT9=
EXTT10=
EXTT11=
EXTT12=
EXTT13=
EXTT14=
PLAYORDER=
